<?xml version="1.0" standalone="no"?>
<!DOCTYPE svg PUBLIC "-//W3C//DTD SVG 20010904//EN"
 "http://www.w3.org/TR/2001/REC-SVG-20010904/DTD/svg10.dtd">
<svg version="1.0" xmlns="http://www.w3.org/2000/svg"
 width="405.000000pt" height="606.000000pt" viewBox="0 0 405.000000 606.000000"
 preserveAspectRatio="xMidYMid meet">
<metadata>
Created by potrace 1.16, written by Peter Selinger 2001-2019
</metadata>
<g transform="translate(0.000000,606.000000) scale(0.100000,-0.100000)"
fill="#000000" stroke="none">
<path d="M885 6046 c-221 -38 -369 -105 -501 -229 -161 -150 -252 -345 -307
-657 -20 -114 -22 -158 -22 -505 1 -284 6 -462 23 -705 59 -880 53 -1263 -34
-2165 -23 -232 -28 -333 -28 -590 -1 -339 4 -391 56 -555 98 -307 270 -490
553 -587 105 -36 234 -53 395 -53 310 0 514 67 667 218 165 163 226 368 226
762 0 227 -12 362 -74 800 -67 479 -64 587 15 666 33 34 53 44 101 54 66 14
169 9 236 -11 55 -17 102 -65 123 -125 25 -74 20 -236 -14 -510 -79 -625 -77
-1032 6 -1289 75 -230 188 -371 369 -461 152 -75 217 -88 450 -88 233 0 298
13 450 88 191 95 318 244 389 458 85 252 94 524 42 1183 -41 518 -49 771 -42
1325 3 278 11 604 16 725 46 1119 36 1397 -63 1684 -65 191 -182 349 -327 446
-90 60 -164 89 -291 116 -193 40 -419 11 -594 -76 -234 -116 -388 -334 -441
-621 -36 -197 -30 -531 18 -944 12 -102 22 -241 22 -310 1 -115 -1 -128 -23
-167 -38 -67 -90 -87 -221 -87 -84 0 -114 4 -151 21 -119 53 -131 154 -79 663
19 178 33 384 37 520 8 322 -11 447 -99 629 -42 87 -62 116 -126 180 -89 89
-196 150 -319 182 -101 26 -324 34 -438 15z"/>
</g>
</svg>
