<?xml version="1.0" standalone="no"?>
<!DOCTYPE svg PUBLIC "-//W3C//DTD SVG 20010904//EN"
 "http://www.w3.org/TR/2001/REC-SVG-20010904/DTD/svg10.dtd">
<svg version="1.0" xmlns="http://www.w3.org/2000/svg"
 width="240.000000pt" height="606.000000pt" viewBox="0 0 240.000000 606.000000"
 preserveAspectRatio="xMidYMid meet">
<metadata>
Created by potrace 1.16, written by Peter Selinger 2001-2019
</metadata>
<g transform="translate(0.000000,606.000000) scale(0.100000,-0.100000)"
fill="#000000" stroke="none">
<path d="M1005 6046 c-221 -38 -369 -105 -501 -229 -161 -150 -252 -345 -307
-657 -20 -114 -22 -158 -22 -505 1 -284 6 -462 23 -705 59 -880 53 -1263 -34
-2165 -23 -232 -28 -333 -28 -590 -1 -339 4 -391 56 -555 98 -307 270 -490
553 -587 105 -36 234 -53 395 -53 310 0 514 67 667 218 165 163 226 368 226
762 0 227 -12 362 -74 800 -67 479 -64 587 15 666 33 34 53 44 101 54 101 21
234 2 298 -42 27 -19 27 -19 27 718 0 737 0 737 -26 711 -38 -39 -88 -51 -199
-51 -79 0 -110 5 -146 21 -119 53 -131 154 -79 663 19 178 33 384 37 520 8
322 -11 447 -99 629 -42 87 -62 116 -126 180 -89 89 -196 150 -319 182 -101
26 -324 34 -438 15z"/>
<path d="M2380 5328 c-21 -133 -24 -434 -5 -663 9 -115 19 -212 21 -214 2 -2
4 210 4 472 0 262 -2 477 -4 477 -2 0 -9 -33 -16 -72z"/>
<path d="M2390 1637 c0 -8 -7 -108 -16 -223 -18 -233 -13 -535 10 -664 12 -68
14 -31 15 413 0 268 -1 487 -4 487 -3 0 -5 -6 -5 -13z"/>
</g>
</svg>
