<?xml version="1.0" standalone="no"?>
<!DOCTYPE svg PUBLIC "-//W3C//DTD SVG 20010904//EN"
 "http://www.w3.org/TR/2001/REC-SVG-20010904/DTD/svg10.dtd">
<svg version="1.0" xmlns="http://www.w3.org/2000/svg"
 width="355.000000pt" height="605.000000pt" viewBox="0 0 355.000000 605.000000"
 preserveAspectRatio="xMidYMid meet">
<metadata>
Created by potrace 1.16, written by Peter Selinger 2001-2019
</metadata>
<g transform="translate(0.000000,605.000000) scale(0.100000,-0.100000)"
fill="#000000" stroke="none">
<path d="M938 6039 c-213 -31 -402 -133 -524 -281 -92 -111 -161 -265 -190
-424 -36 -197 -30 -531 18 -944 12 -102 22 -241 22 -310 1 -115 -1 -128 -23
-167 -31 -53 -81 -79 -173 -88 l-68 -7 0 -658 0 -657 57 -7 c128 -15 187 -53
217 -142 25 -74 20 -236 -14 -510 -79 -625 -77 -1032 6 -1289 75 -230 188
-371 369 -461 152 -75 217 -88 450 -88 233 0 298 13 450 88 191 95 318 244
389 458 85 252 94 524 42 1183 -41 518 -49 771 -42 1325 3 278 11 604 16 725
46 1119 36 1397 -63 1684 -18 55 -54 134 -78 177 -83 145 -234 281 -377 339
-134 54 -332 77 -484 54z"/>
<path d="M2630 5924 c-94 -18 -229 -81 -308 -144 -97 -76 -184 -214 -224 -357
-30 -108 -30 -276 0 -385 59 -212 179 -373 341 -457 97 -50 160 -68 264 -76
384 -30 697 296 697 726 0 308 -166 562 -434 662 -70 26 -96 30 -196 33 -63 1
-126 0 -140 -2z"/>
<path d="M3523 4880 c-95 -317 -96 -639 -5 -914 27 -81 27 -81 30 187 1 147 1
387 0 535 -3 267 -3 267 -25 192z"/>
<path d="M2615 4395 c-70 -19 -138 -50 -190 -85 -101 -69 -217 -258 -265 -430
-23 -86 -55 -262 -71 -400 -26 -218 -33 -1911 -9 -2235 41 -571 136 -877 332
-1061 124 -117 305 -162 473 -119 223 58 382 277 439 602 32 181 37 293 42
908 2 347 12 860 20 1140 16 493 14 643 -7 865 -44 458 -216 742 -494 815 -72
18 -202 19 -270 0z"/>
<path d="M3522 1970 c-65 -160 -87 -313 -79 -549 6 -177 27 -298 75 -451 27
-85 27 -85 30 203 1 159 1 415 0 570 -3 282 -3 282 -26 227z"/>
</g>
</svg>
