<?xml version="1.0" standalone="no"?>
<!DOCTYPE svg PUBLIC "-//W3C//DTD SVG 20010904//EN"
 "http://www.w3.org/TR/2001/REC-SVG-20010904/DTD/svg10.dtd">
<svg version="1.0" xmlns="http://www.w3.org/2000/svg"
 width="135.000000pt" height="588.000000pt" viewBox="0 0 135.000000 588.000000"
 preserveAspectRatio="xMidYMid meet">
<metadata>
Created by potrace 1.16, written by Peter Selinger 2001-2019
</metadata>
<g transform="translate(0.000000,588.000000) scale(0.100000,-0.100000)"
fill="#000000" stroke="none">
<path d="M570 5874 c-94 -18 -229 -81 -308 -144 -97 -76 -184 -214 -224 -357
-30 -108 -30 -276 0 -385 59 -212 179 -373 341 -457 97 -50 160 -68 264 -76
384 -30 697 296 697 726 0 308 -166 562 -434 662 -70 26 -96 30 -196 33 -63 1
-126 0 -140 -2z"/>
<path d="M555 4345 c-70 -19 -138 -50 -190 -85 -101 -69 -217 -258 -265 -430
-23 -86 -55 -262 -71 -400 -26 -218 -33 -1911 -9 -2235 41 -571 136 -877 332
-1061 124 -117 305 -162 473 -119 223 58 382 277 439 602 32 181 37 293 42
908 2 347 12 860 20 1140 16 493 14 643 -7 865 -44 458 -216 742 -494 815 -72
18 -202 19 -270 0z"/>
</g>
</svg>
