<?xml version="1.0" standalone="no"?>
<!DOCTYPE svg PUBLIC "-//W3C//DTD SVG 20010904//EN"
 "http://www.w3.org/TR/2001/REC-SVG-20010904/DTD/svg10.dtd">
<svg version="1.0" xmlns="http://www.w3.org/2000/svg"
 width="275.000000pt" height="519.000000pt" viewBox="0 0 275.000000 519.000000"
 preserveAspectRatio="xMidYMid meet">
<metadata>
Created by potrace 1.16, written by Peter Selinger 2001-2019
</metadata>
<g transform="translate(0.000000,519.000000) scale(0.100000,-0.100000)"
fill="#000000" stroke="none">
<path d="M1263 5175 c-40 -7 -109 -25 -155 -39 -98 -31 -304 -138 -300 -155 1
-7 -2 -10 -8 -6 -25 15 -257 -192 -371 -331 -143 -175 -294 -450 -383 -696
-46 -128 -46 -128 -46 -1402 0 -1275 0 -1275 50 -1430 214 -659 564 -1017
1079 -1102 125 -20 363 -15 481 11 428 95 765 425 985 964 48 119 103 285 134
408 21 82 21 92 19 1330 -3 1248 -3 1248 -56 1403 -66 192 -180 425 -269 549
-105 146 -317 344 -368 344 -8 0 -12 3 -10 7 7 11 -126 77 -210 104 -45 15
-116 33 -159 41 -95 18 -313 18 -413 0z m197 -1321 c42 -12 67 -29 116 -78
149 -149 225 -435 211 -796 -12 -300 -82 -524 -200 -643 -63 -64 -124 -91
-207 -92 -236 -1 -393 278 -416 745 -11 213 31 463 105 623 73 157 188 254
307 256 17 1 55 -6 84 -15z"/>
</g>
</svg>
