<?xml version="1.0" standalone="no"?>
<!DOCTYPE svg PUBLIC "-//W3C//DTD SVG 20010904//EN"
 "http://www.w3.org/TR/2001/REC-SVG-20010904/DTD/svg10.dtd">
<svg version="1.0" xmlns="http://www.w3.org/2000/svg"
 width="320.000000pt" height="588.000000pt" viewBox="0 0 320.000000 588.000000"
 preserveAspectRatio="xMidYMid meet">
<metadata>
Created by potrace 1.16, written by Peter Selinger 2001-2019
</metadata>
<g transform="translate(0.000000,588.000000) scale(0.100000,-0.100000)"
fill="#000000" stroke="none">
<path d="M0 5180 c0 -702 0 -702 37 -696 21 3 67 8 103 11 160 16 334 70 431
136 115 78 216 226 253 371 62 244 -3 498 -162 639 -135 118 -303 181 -624
234 -38 6 -38 6 -38 -695z"/>
<path d="M3162 5333 c-91 -199 -96 -353 -32 -863 17 -129 39 -325 49 -435 19
-200 19 -200 20 583 0 430 -1 782 -3 782 -1 0 -17 -30 -34 -67z"/>
<path d="M1553 5175 c-40 -7 -109 -25 -155 -39 -98 -31 -304 -138 -300 -155 1
-7 -2 -10 -8 -6 -25 15 -257 -192 -371 -331 -192 -235 -357 -569 -453 -919
-86 -316 -123 -594 -133 -995 -8 -367 15 -676 78 -1059 166 -1006 563 -1550
1208 -1657 125 -20 363 -15 481 11 685 151 1122 893 1244 2110 45 449 40 921
-14 1340 -29 219 -94 497 -162 695 -55 158 -174 396 -255 509 -105 146 -317
344 -368 344 -8 0 -12 3 -10 7 7 11 -126 77 -210 104 -45 15 -116 33 -159 41
-95 18 -313 18 -413 0z m197 -1321 c42 -12 67 -29 116 -78 149 -149 225 -435
211 -796 -12 -300 -82 -524 -200 -643 -63 -64 -124 -91 -207 -92 -236 -1 -393
278 -416 745 -11 213 31 463 105 623 73 157 188 254 307 256 17 1 55 -6 84
-15z"/>
<path d="M1 1559 c0 -1035 1 -1044 19 -991 26 73 55 213 76 362 24 169 24 649
0 910 -17 196 -85 752 -92 759 -2 2 -4 -466 -3 -1040z"/>
<path d="M3152 1177 c-24 -171 -48 -364 -54 -427 -18 -203 7 -383 71 -507 30
-58 30 -58 31 595 0 358 -1 652 -2 652 -2 0 -22 -141 -46 -313z"/>
</g>
</svg>
