<?xml version="1.0" standalone="no"?>
<!DOCTYPE svg PUBLIC "-//W3C//DTD SVG 20010904//EN"
 "http://www.w3.org/TR/2001/REC-SVG-20010904/DTD/svg10.dtd">
<svg version="1.0" xmlns="http://www.w3.org/2000/svg"
 width="347.000000pt" height="600.000000pt" viewBox="0 0 347.000000 600.000000"
 preserveAspectRatio="xMidYMid meet">
<metadata>
Created by potrace 1.16, written by Peter Selinger 2001-2019
</metadata>
<g transform="translate(0.000000,600.000000) scale(0.100000,-0.100000)"
fill="#000000" stroke="none">
<path d="M3255 5986 c-141 -44 -243 -162 -290 -331 -88 -321 75 -944 454
-1735 l50 -105 -2 1090 -2 1090 -85 2 c-47 1 -103 -4 -125 -11z"/>
<path d="M1168 5900 c-741 -56 -1087 -392 -1037 -1010 5 -69 23 -228 39 -355
77 -605 120 -1314 120 -1965 0 -542 -14 -734 -95 -1310 -55 -390 -69 -549 -60
-664 30 -387 250 -596 628 -596 192 0 330 53 440 169 175 186 230 497 171 966
-8 66 -30 228 -49 360 -60 417 -63 493 -23 518 51 33 81 -39 177 -425 44 -172
96 -365 116 -428 180 -555 433 -916 750 -1070 132 -64 214 -84 345 -84 438 1
710 358 650 854 -23 192 -110 437 -229 646 -161 280 -330 494 -675 854 -155
162 -206 226 -206 258 0 33 38 70 174 172 393 293 598 633 672 1115 21 138 15
471 -11 610 -85 462 -254 779 -550 1030 -219 186 -537 312 -865 344 -157 15
-362 20 -482 11z m430 -1275 c135 -32 240 -112 294 -224 27 -57 33 -80 36
-162 5 -119 -9 -189 -59 -287 -49 -98 -100 -157 -186 -216 -89 -60 -168 -88
-269 -94 -96 -5 -129 8 -173 68 -44 62 -56 143 -56 390 1 227 9 294 50 385 26
60 100 129 153 143 55 15 139 14 210 -3z"/>
<path d="M2 2755 c0 -1490 0 -1490 24 -1415 62 196 127 546 158 855 53 527 37
1082 -45 1530 -23 124 -88 382 -118 465 -20 55 -20 55 -19 -1435z"/>
<path d="M3460 1883 c0 -10 -7 -75 -15 -145 -29 -264 -38 -496 -26 -680 7 -95
20 -213 30 -263 19 -90 19 -90 20 508 0 328 -1 597 -4 597 -3 0 -5 -8 -5 -17z"/>
</g>
</svg>
