<?xml version="1.0" standalone="no"?>
<!DOCTYPE svg PUBLIC "-//W3C//DTD SVG 20010904//EN"
 "http://www.w3.org/TR/2001/REC-SVG-20010904/DTD/svg10.dtd">
<svg version="1.0" xmlns="http://www.w3.org/2000/svg"
 width="293.000000pt" height="591.000000pt" viewBox="0 0 293.000000 591.000000"
 preserveAspectRatio="xMidYMid meet">
<metadata>
Created by potrace 1.16, written by Peter Selinger 2001-2019
</metadata>
<g transform="translate(0.000000,591.000000) scale(0.100000,-0.100000)"
fill="#000000" stroke="none">
<path d="M838 5900 c-348 -26 -597 -110 -779 -262 l-59 -49 0 -2723 c0 -2724
0 -2724 32 -2752 156 -132 512 -153 719 -43 127 68 234 220 278 396 60 235 54
415 -34 1028 -60 417 -63 493 -23 518 51 33 81 -39 177 -425 44 -172 96 -365
116 -428 142 -439 340 -772 569 -956 93 -75 246 -154 351 -180 93 -24 257 -24
345 0 153 41 300 145 369 261 34 57 34 57 24 503 -10 447 -10 447 -45 527 -19
45 -63 130 -97 190 -161 281 -330 495 -675 855 -155 162 -206 226 -206 258 0
33 38 70 174 172 393 293 598 633 672 1115 21 138 15 471 -11 610 -85 462
-254 779 -550 1030 -219 186 -537 312 -865 344 -157 15 -362 20 -482 11z m430
-1275 c135 -32 240 -112 294 -224 27 -57 33 -80 36 -162 5 -119 -9 -189 -59
-287 -49 -98 -100 -157 -186 -216 -89 -60 -168 -88 -269 -94 -96 -5 -129 8
-173 68 -44 62 -56 143 -56 390 1 227 9 294 50 385 26 60 100 129 153 143 55
15 139 14 210 -3z"/>
</g>
</svg>
