<?xml version="1.0" standalone="no"?>
<!DOCTYPE svg PUBLIC "-//W3C//DTD SVG 20010904//EN"
 "http://www.w3.org/TR/2001/REC-SVG-20010904/DTD/svg10.dtd">
<svg version="1.0" xmlns="http://www.w3.org/2000/svg"
 width="312.000000pt" height="593.000000pt" viewBox="0 0 312.000000 593.000000"
 preserveAspectRatio="xMidYMid meet">
<metadata>
Created by potrace 1.16, written by Peter Selinger 2001-2019
</metadata>
<g transform="translate(0.000000,593.000000) scale(0.100000,-0.100000)"
fill="#000000" stroke="none">
<path d="M1320 5920 c-272 -26 -549 -134 -746 -291 -457 -363 -672 -1054 -508
-1627 33 -116 119 -290 191 -388 149 -200 241 -288 659 -629 395 -322 554
-488 647 -674 40 -80 42 -89 42 -170 0 -76 -3 -92 -28 -133 -64 -109 -167
-127 -282 -47 -22 15 -79 61 -127 102 -209 181 -356 247 -548 247 -292 0 -498
-164 -579 -460 -34 -125 -44 -240 -38 -425 10 -290 73 -522 204 -750 96 -167
239 -321 395 -425 109 -73 162 -101 280 -146 206 -79 399 -109 643 -101 272 9
433 47 660 156 180 87 305 183 455 347 257 282 471 787 470 1111 0 54 -7 242
-15 418 -14 311 -15 323 -45 418 -84 267 -246 543 -442 753 -161 172 -352 312
-673 494 -256 145 -356 213 -428 288 -138 146 -150 312 -30 411 76 63 160 65
308 8 175 -68 275 -72 395 -15 175 84 293 307 307 583 24 474 -291 836 -808
929 -110 20 -254 26 -359 16z"/>
<path d="M2707 5601 c-151 -209 -171 -494 -50 -710 39 -70 117 -156 133 -146
6 4 9 1 8 -7 -2 -7 5 -12 14 -12 10 1 16 -3 15 -9 -2 -12 127 -81 141 -75 9 3
-208 991 -220 1003 -3 3 -22 -17 -41 -44z"/>
</g>
</svg>
