<?xml version="1.0" standalone="no"?>
<!DOCTYPE svg PUBLIC "-//W3C//DTD SVG 20010904//EN"
 "http://www.w3.org/TR/2001/REC-SVG-20010904/DTD/svg10.dtd">
<svg version="1.0" xmlns="http://www.w3.org/2000/svg"
 width="339.000000pt" height="593.000000pt" viewBox="0 0 339.000000 593.000000"
 preserveAspectRatio="xMidYMid meet">
<metadata>
Created by potrace 1.16, written by Peter Selinger 2001-2019
</metadata>
<g transform="translate(0.000000,593.000000) scale(0.100000,-0.100000)"
fill="#000000" stroke="none">
<path d="M1450 5920 c-272 -26 -549 -134 -746 -291 -457 -363 -672 -1054 -508
-1627 33 -116 119 -290 191 -388 149 -200 241 -288 659 -629 395 -322 554
-488 647 -674 40 -80 42 -89 42 -170 0 -76 -3 -92 -28 -133 -64 -109 -167
-127 -282 -47 -22 15 -79 61 -127 102 -209 181 -356 247 -548 247 -292 0 -498
-164 -579 -460 -34 -125 -44 -240 -38 -425 10 -290 73 -522 204 -750 63 -109
122 -185 220 -282 210 -206 473 -329 813 -379 138 -20 403 -15 545 11 189 34
444 138 590 242 218 156 395 369 534 641 142 280 211 554 227 897 27 587 -235
1171 -701 1562 -135 114 -263 199 -500 333 -256 145 -356 213 -428 288 -138
146 -150 312 -30 411 76 63 160 65 308 8 175 -68 275 -72 395 -15 175 84 293
307 307 583 24 474 -291 836 -808 929 -110 20 -254 26 -359 16z"/>
<path d="M3265 5876 c-150 -49 -233 -93 -338 -180 -221 -181 -284 -546 -140
-805 39 -70 117 -156 133 -146 6 4 9 1 8 -7 -2 -7 5 -12 14 -12 10 1 16 -3 15
-9 -6 -31 224 -110 386 -132 47 -6 47 -6 47 659 0 527 -3 666 -12 665 -7 0
-58 -15 -113 -33z"/>
<path d="M2 5225 c0 -370 0 -370 24 -316 85 187 86 446 1 631 -25 55 -25 55
-25 -315z"/>
<path d="M2 2265 c0 -932 4 -1642 9 -1620 33 156 40 311 45 930 2 347 12 860
20 1140 16 494 14 643 -7 865 -10 103 -43 284 -59 324 -5 12 -9 -726 -8 -1639z"/>
<path d="M3380 2268 c0 -13 -7 -99 -15 -193 -33 -379 -29 -809 10 -1070 11
-80 13 -15 14 598 1 378 -1 687 -4 687 -3 0 -5 -10 -5 -22z"/>
</g>
</svg>
