<?xml version="1.0" standalone="no"?>
<!DOCTYPE svg PUBLIC "-//W3C//DTD SVG 20010904//EN"
 "http://www.w3.org/TR/2001/REC-SVG-20010904/DTD/svg10.dtd">
<svg version="1.0" xmlns="http://www.w3.org/2000/svg"
 width="317.000000pt" height="598.000000pt" viewBox="0 0 317.000000 598.000000"
 preserveAspectRatio="xMidYMid meet">
<metadata>
Created by potrace 1.16, written by Peter Selinger 2001-2019
</metadata>
<g transform="translate(0.000000,598.000000) scale(0.100000,-0.100000)"
fill="#000000" stroke="none">
<path d="M1225 5970 c-690 -59 -1010 -194 -1159 -489 -92 -181 -88 -433 11
-610 39 -70 117 -156 133 -146 6 4 9 1 8 -7 -2 -7 5 -12 14 -12 10 1 16 -3 15
-9 -3 -17 118 -73 208 -96 47 -12 145 -30 220 -41 206 -29 295 -79 345 -192
48 -110 38 -218 -55 -596 -132 -535 -197 -841 -244 -1152 -126 -834 -118
-1567 21 -1990 101 -310 296 -517 568 -602 66 -20 94 -23 240 -23 152 1 171 3
245 28 118 39 199 91 295 187 173 174 262 394 316 780 24 168 24 647 0 910
-37 417 -116 984 -197 1415 -17 88 -44 221 -60 295 -119 531 -127 581 -110
673 14 75 33 114 79 162 49 50 127 84 226 97 45 5 90 12 102 14 12 2 177 163
369 359 347 355 347 355 336 434 -36 247 -182 409 -454 506 -99 35 -231 64
-427 91 -133 18 -875 28 -1045 14z"/>
</g>
</svg>
