<?xml version="1.0" standalone="no"?>
<!DOCTYPE svg PUBLIC "-//W3C//DTD SVG 20010904//EN"
 "http://www.w3.org/TR/2001/REC-SVG-20010904/DTD/svg10.dtd">
<svg version="1.0" xmlns="http://www.w3.org/2000/svg"
 width="211.000000pt" height="598.000000pt" viewBox="0 0 211.000000 598.000000"
 preserveAspectRatio="xMidYMid meet">
<metadata>
Created by potrace 1.16, written by Peter Selinger 2001-2019
</metadata>
<g transform="translate(0.000000,598.000000) scale(0.100000,-0.100000)"
fill="#000000" stroke="none">
<path d="M785 5969 c-273 -22 -506 -61 -673 -114 l-112 -36 0 -608 c0 -608 0
-608 53 -620 28 -6 112 -20 185 -31 203 -29 292 -80 342 -192 48 -110 38 -218
-55 -596 -132 -535 -197 -841 -244 -1152 -126 -834 -118 -1567 21 -1990 101
-310 296 -517 568 -602 66 -20 94 -23 240 -23 152 1 171 3 245 28 118 39 199
91 295 187 174 174 263 394 316 780 24 170 24 649 0 910 -38 421 -116 982
-197 1415 -17 88 -50 248 -74 355 -24 107 -56 251 -71 320 -31 141 -37 280
-15 345 17 50 66 116 107 144 51 35 133 59 244 70 58 6 115 14 128 16 22 5 22
5 22 669 0 665 0 665 -52 675 -101 20 -255 40 -389 51 -154 11 -735 11 -884
-1z"/>
<path d="M2082 3568 c-63 -322 -77 -490 -76 -893 0 -361 10 -499 54 -805 49
-337 48 -363 49 768 0 573 0 1042 -2 1042 -2 0 -13 -51 -25 -112z"/>
<path d="M2 1835 c-1 -746 -2 -731 53 -500 92 383 82 772 -28 1105 -25 75 -25
75 -25 -605z"/>
</g>
</svg>
