<?xml version="1.0" standalone="no"?>
<!DOCTYPE svg PUBLIC "-//W3C//DTD SVG 20010904//EN"
 "http://www.w3.org/TR/2001/REC-SVG-20010904/DTD/svg10.dtd">
<svg version="1.0" xmlns="http://www.w3.org/2000/svg"
 width="232.000000pt" height="602.000000pt" viewBox="0 0 232.000000 602.000000"
 preserveAspectRatio="xMidYMid meet">
<metadata>
Created by potrace 1.16, written by Peter Selinger 2001-2019
</metadata>
<g transform="translate(0.000000,602.000000) scale(0.100000,-0.100000)"
fill="#000000" stroke="none">
<path d="M1 5893 c0 -71 11 -524 23 -1008 23 -880 23 -880 66 -970 147 -312
202 -527 203 -790 0 -172 -13 -282 -83 -678 -116 -665 -144 -954 -130 -1322 9
-224 29 -359 76 -502 116 -357 355 -569 694 -613 154 -20 312 6 450 73 112 55
225 161 295 278 62 106 119 273 139 410 18 120 21 356 6 499 -18 178 -82 484
-190 915 -132 525 -144 595 -138 764 8 204 58 322 249 586 307 427 461 731
569 1125 40 148 67 295 80 442 30 334 -63 626 -250 784 -65 53 -173 103 -245
110 -212 22 -437 -131 -563 -381 -73 -146 -119 -318 -147 -550 -44 -363 -56
-413 -110 -470 -38 -41 -82 -46 -132 -16 -61 38 -118 175 -147 356 -9 55 -27
168 -41 250 -49 306 -133 514 -263 656 -101 110 -239 179 -358 179 -54 0 -54
0 -53 -127z"/>
</g>
</svg>
