<?xml version="1.0" standalone="no"?>
<!DOCTYPE svg PUBLIC "-//W3C//DTD SVG 20010904//EN"
 "http://www.w3.org/TR/2001/REC-SVG-20010904/DTD/svg10.dtd">
<svg version="1.0" xmlns="http://www.w3.org/2000/svg"
 width="255.000000pt" height="602.000000pt" viewBox="0 0 255.000000 602.000000"
 preserveAspectRatio="xMidYMid meet">
<metadata>
Created by potrace 1.16, written by Peter Selinger 2001-2019
</metadata>
<g transform="translate(0.000000,602.000000) scale(0.100000,-0.100000)"
fill="#000000" stroke="none">
<path d="M32 6009 c-32 -10 -32 -10 -32 -832 l1 -822 90 -200 c254 -562 287
-657 310 -920 16 -176 1 -313 -81 -790 -144 -831 -171 -1270 -99 -1641 90
-470 344 -743 739 -794 154 -20 312 6 450 73 112 55 225 161 295 278 62 106
119 273 139 410 18 120 21 356 6 499 -18 178 -82 484 -190 915 -132 525 -144
595 -138 764 8 204 58 322 249 586 307 427 461 731 569 1125 40 148 67 295 80
442 30 334 -63 626 -250 784 -65 53 -173 103 -245 110 -212 22 -437 -131 -563
-381 -73 -146 -119 -318 -147 -550 -44 -363 -56 -413 -110 -470 -38 -41 -82
-46 -132 -16 -61 38 -118 175 -147 356 -9 55 -27 168 -41 250 -62 385 -184
627 -378 755 -84 55 -170 80 -266 79 -42 0 -91 -5 -109 -10z"/>
<path d="M1 790 c-1 -485 -1 -485 29 -435 71 123 103 333 80 525 -11 93 -76
338 -101 380 -5 9 -8 -186 -8 -470z"/>
</g>
</svg>
